<svg xmlns="http://www.w3.org/2000/svg" width="28" height="28" viewBox="0 0 28 27.999"><defs><style>.a{fill:#84fe60;}</style></defs><g transform="translate(-2455.403 -749.939)"><path class="a" d="M2468.736,759.255a7.688,7.688,0,0,0-7.078,1.248,3.233,3.233,0,0,1-.6-.063v5.127h1.842v-4.312h2.89v4.312h5.916V760.44a3.232,3.232,0,0,1-.606.063A2.635,2.635,0,0,1,2468.736,759.255Z" transform="translate(3.026 3.606)"/><path class="a" d="M2469.4,749.939a14,14,0,1,0,14,14A14,14,0,0,0,2469.4,749.939Zm8.717,12.34V771.8h-17.434v-9.523a2.236,2.236,0,0,1-.566-1.462,2.153,2.153,0,0,1,.314-1.1l1.53-4.05h14.878l1.529,4.052a2.155,2.155,0,0,1,.315,1.1A2.237,2.237,0,0,1,2478.12,762.279Z" transform="translate(0 0)"/></g></svg>