<svg width="243" height="289" viewBox="0 0 243 289" fill="none" xmlns="http://www.w3.org/2000/svg">
<g id="Frame">
<g id="Girl Study">
<path id="Vector" d="M106.312 180.625H60.75V58.7031C60.75 44.3317 65.5503 30.5489 74.0949 20.3868C82.6396 10.2246 94.2286 4.51561 106.312 4.51561C123.436 4.51561 134.447 2.79967 148.078 13.5469C157.141 13.5469 165.833 17.8286 172.241 25.4502C178.65 33.0718 182.25 43.4089 182.25 54.1875V180.625H136.688" fill="url(#paint0_linear)"/>
<path id="Vector_2" d="M182.25 167.078H60.75V180.625H182.25V167.078Z" fill="#8A6762"/>
<path id="Vector_3" d="M136.688 159.447V180.625L121.5 194.172L106.312 180.625V159.447C116.136 163.601 126.864 163.601 136.688 159.447Z" fill="url(#paint1_linear)"/>
<path id="Vector_4" d="M136.688 159.447V168.478C126.864 172.632 116.136 172.632 106.312 168.478V159.447C116.136 163.601 126.864 163.601 136.688 159.447Z" fill="#FCD2C3"/>
<path id="Vector_5" d="M79.7344 90.3125C79.1077 90.3119 78.4909 90.1268 77.9389 89.7737C77.387 89.4207 76.9172 88.9107 76.5713 88.2891C76.2254 87.6676 76.0142 86.954 75.9566 86.2118C75.899 85.4696 75.9968 84.722 76.2412 84.0357L79.7344 74.3271C95.6433 30.1643 121.842 63.4445 149.787 41.4082C150.514 40.8285 151.388 40.5657 152.26 40.6645C153.132 40.7632 153.948 41.2174 154.571 41.9501C167.062 56.6711 165.088 71.2565 167.062 85.0743C167.224 86.272 166.978 87.4966 166.38 88.479C165.782 89.4613 164.88 90.1208 163.873 90.3125C162.866 90.5041 161.836 90.2121 161.01 89.5007C160.184 88.7894 159.63 87.717 159.469 86.5193C157.874 74.7787 160.532 63.5348 151.192 50.9362C121.5 71.2114 99.6679 41.905 86.6447 78.03C83.5312 87.0612 83.0376 90.3125 79.7344 90.3125Z" fill="#8A6762"/>
<path id="Vector_6" d="M170.859 112.891H159.469V85.7969H170.859C173.88 85.7969 176.778 87.2241 178.914 89.7647C181.05 92.3052 182.25 95.7509 182.25 99.3437C182.25 102.937 181.05 106.382 178.914 108.923C176.778 111.463 173.88 112.891 170.859 112.891V112.891Z" fill="url(#paint2_linear)"/>
<path id="Vector_7" d="M72.1406 85.7969H83.5312V112.891H72.1406C69.1196 112.891 66.2224 111.463 64.0862 108.923C61.9501 106.382 60.75 102.937 60.75 99.3437C60.75 95.7509 61.9501 92.3052 64.0862 89.7647C66.2224 87.2241 69.1196 85.7969 72.1406 85.7969V85.7969Z" fill="url(#paint3_linear)"/>
<path id="face" d="M167.063 90.3125V108.375C167.063 122.746 162.262 136.529 153.718 146.691C145.173 156.853 133.584 162.562 121.5 162.562C109.416 162.562 97.8271 156.853 89.2825 146.691C80.7379 136.529 75.9375 122.746 75.9375 108.375C75.9375 86.6548 75.0263 92.8413 79.4307 80.6039C81.5848 74.5561 85.0846 69.3212 89.5536 65.4623C94.0225 61.6034 99.2915 59.2666 104.794 58.7031C120.551 57.0775 134.827 63.2188 151.875 49.6719C163.531 63.5348 165.278 77.3527 167.063 90.3125Z" fill="url(#paint4_linear)"/>
<path id="mount" d="M110.755 132.804C111.108 132.381 111.528 132.045 111.99 131.816C112.453 131.587 112.949 131.469 113.451 131.469C113.952 131.469 114.448 131.587 114.911 131.816C115.374 132.045 115.793 132.381 116.146 132.804C117.569 134.487 119.494 135.431 121.5 135.431C123.506 135.431 125.431 134.487 126.854 132.804C127.569 131.954 128.538 131.476 129.549 131.476C130.56 131.476 131.53 131.954 132.245 132.804C132.96 133.655 133.362 134.808 133.362 136.011C133.362 137.213 132.96 138.366 132.245 139.217C122.032 151.319 105.098 139.578 110.755 132.804Z" fill="#E8677D"/>
<path id="Vector_8" d="M94.9219 94.8281V90.3125C94.9219 89.1149 95.3219 87.9663 96.034 87.1195C96.746 86.2726 97.7118 85.7969 98.7188 85.7969C99.7257 85.7969 100.691 86.2726 101.404 87.1195C102.116 87.9663 102.516 89.1149 102.516 90.3125V94.8281C102.516 96.0257 102.116 97.1743 101.404 98.0211C100.691 98.868 99.7257 99.3437 98.7188 99.3437C97.7118 99.3437 96.746 98.868 96.034 98.0211C95.3219 97.1743 94.9219 96.0257 94.9219 94.8281Z" fill="#42455E"/>
<path id="Vector_9" d="M140.484 94.8281V90.3125C140.484 89.1149 140.884 87.9663 141.596 87.1195C142.309 86.2726 143.274 85.7969 144.281 85.7969C145.288 85.7969 146.254 86.2726 146.966 87.1195C147.678 87.9663 148.078 89.1149 148.078 90.3125V94.8281C148.078 96.0257 147.678 97.1743 146.966 98.0211C146.254 98.868 145.288 99.3437 144.281 99.3437C143.274 99.3437 142.309 98.868 141.596 98.0211C140.884 97.1743 140.484 96.0257 140.484 94.8281Z" fill="#42455E"/>
<path id="Vector_10" d="M167.062 95.3248C165.43 83.6745 160.494 72.4758 151.23 59.9675C137.029 69.6761 125.639 67.7344 107.376 67.7344C96.7064 67.7344 83.3034 75.2755 79.1268 86.8806C74.9503 98.4858 75.9375 98.3503 75.9375 90.3125L79.4306 80.6039C81.7732 74.0997 85.6703 68.5569 90.6382 64.6635C95.6061 60.7701 101.426 58.6976 107.376 58.7031H127.233C144.319 57.6645 148.951 49.6719 151.875 49.6719C156.806 55.7205 160.685 62.8661 163.291 70.6998C165.897 78.5335 167.179 86.9014 167.062 95.3248Z" fill="#FCD2C3"/>
<path id="Vector_11" d="M212.625 284.484H30.375C35.6906 246.598 36.0703 226.639 53.1562 204.242H189.844C207.195 227.001 207.575 248.359 212.625 284.484Z" fill="url(#paint5_linear)"/>
<path id="Vector_12" d="M212.625 284.484H30.375L32.2734 270.937H210.727L212.625 284.484Z" fill="#C7CDD8"/>
<path id="book-left" d="M60.75 284.484H121.5V180.625H53.1562V244.657" fill="url(#paint6_linear)"/>
<path id="book-right" d="M178.453 284.484H121.5V180.625H189.844V246.282" fill="url(#paint7_linear)"/>
<g id="book-title" filter="url(#filter0_i)">
<path d="M174.656 203.203H136.688V225.781H174.656V203.203Z" fill="#DFE3EA"/>
</g>
<path id="Vector_13" d="M45.5625 284.484V261.906C45.5625 257.116 47.1626 252.521 50.0108 249.134C52.859 245.747 56.722 243.844 60.75 243.844C64.778 243.844 68.641 245.747 71.4892 249.134C74.3374 252.521 75.9375 257.116 75.9375 261.906V270.937C75.9375 274.53 74.7374 277.976 72.6013 280.517C70.4651 283.057 67.5679 284.484 64.5469 284.484H45.5625Z" fill="url(#paint8_linear)"/>
<path id="Vector_14" d="M197.438 284.484V261.906C197.438 257.116 195.837 252.521 192.989 249.134C190.141 245.747 186.278 243.844 182.25 243.844C178.222 243.844 174.359 245.747 171.511 249.134C168.663 252.521 167.062 257.116 167.062 261.906V270.937C167.062 274.53 168.263 277.976 170.399 280.517C172.535 283.057 175.432 284.484 178.453 284.484H197.438Z" fill="url(#paint9_linear)"/>
<path id="Vector_15" d="M75.9375 261.906V270.937C75.9375 274.53 74.7374 277.976 72.6013 280.517C70.4651 283.057 67.5679 284.484 64.5469 284.484H45.5625V275.453H64.5469C67.5679 275.453 70.4651 274.026 72.6013 271.485C74.7374 268.945 75.9375 265.499 75.9375 261.906Z" fill="#D08666"/>
<path id="Vector_16" d="M197.438 275.453V284.484H178.453C175.432 284.484 172.535 283.057 170.399 280.517C168.263 277.976 167.062 274.53 167.062 270.937V261.906C167.062 265.499 168.263 268.945 170.399 271.485C172.535 274.026 175.432 275.453 178.453 275.453H197.438Z" fill="#D08666"/>
</g>
</g>
<defs>
<filter id="filter0_i" x="136.688" y="203.203" width="37.9688" height="26.5781" filterUnits="userSpaceOnUse" color-interpolation-filters="sRGB">
<feFlood flood-opacity="0" result="BackgroundImageFix"/>
<feBlend mode="normal" in="SourceGraphic" in2="BackgroundImageFix" result="shape"/>
<feColorMatrix in="SourceAlpha" type="matrix" values="0 0 0 0 0 0 0 0 0 0 0 0 0 0 0 0 0 0 127 0" result="hardAlpha"/>
<feOffset dy="4"/>
<feGaussianBlur stdDeviation="2"/>
<feComposite in2="hardAlpha" operator="arithmetic" k2="-1" k3="1"/>
<feColorMatrix type="matrix" values="0 0 0 0 0 0 0 0 0 0 0 0 0 0 0 0 0 0 0.25 0"/>
<feBlend mode="normal" in2="shape" result="effect1_innerShadow"/>
</filter>
<linearGradient id="paint0_linear" x1="121.5" y1="180.625" x2="121.5" y2="4.42529" gradientUnits="userSpaceOnUse">
<stop stop-color="#9B756D"/>
<stop offset="1" stop-color="#BC9388"/>
</linearGradient>
<linearGradient id="paint1_linear" x1="121.5" y1="194.172" x2="121.5" y2="159.447" gradientUnits="userSpaceOnUse">
<stop stop-color="#F2C4B0"/>
<stop offset="1" stop-color="#FFE3D7"/>
</linearGradient>
<linearGradient id="paint2_linear" x1="1184.62" y1="763.141" x2="1184.62" y2="600.578" gradientUnits="userSpaceOnUse">
<stop stop-color="#F2C4B0"/>
<stop offset="1" stop-color="#FFE3D7"/>
</linearGradient>
<linearGradient id="paint3_linear" x1="493.594" y1="763.141" x2="493.594" y2="600.578" gradientUnits="userSpaceOnUse">
<stop stop-color="#F2C4B0"/>
<stop offset="1" stop-color="#FFE3D7"/>
</linearGradient>
<linearGradient id="paint4_linear" x1="2993.45" y1="4113.73" x2="2993.45" y2="1291.47" gradientUnits="userSpaceOnUse">
<stop stop-color="#F2C4B0"/>
<stop offset="1" stop-color="#FFE3D7"/>
</linearGradient>
<linearGradient id="paint5_linear" x1="121.5" y1="284.484" x2="121.5" y2="204.242" gradientUnits="userSpaceOnUse">
<stop stop-color="#D4D8E1"/>
<stop offset="1" stop-color="#F3F4F5"/>
</linearGradient>
<linearGradient id="paint6_linear" x1="53.1562" y1="232.555" x2="121.5" y2="232.555" gradientUnits="userSpaceOnUse">
<stop stop-color="#DA5466"/>
<stop offset="1" stop-color="#F4929C"/>
</linearGradient>
<linearGradient id="paint7_linear" x1="2308.5" y1="180.625" x2="3538.69" y2="180.625" gradientUnits="userSpaceOnUse">
<stop stop-color="#DA5466"/>
<stop offset="1" stop-color="#F4929C"/>
</linearGradient>
<linearGradient id="paint8_linear" x1="531.562" y1="2804.2" x2="531.562" y2="2438.44" gradientUnits="userSpaceOnUse">
<stop stop-color="#F2C4B0"/>
<stop offset="1" stop-color="#FFE3D7"/>
</linearGradient>
<linearGradient id="paint9_linear" x1="1625.06" y1="2804.2" x2="1625.06" y2="2438.44" gradientUnits="userSpaceOnUse">
<stop stop-color="#F2C4B0"/>
<stop offset="1" stop-color="#FFE3D7"/>
</linearGradient>
</defs>
</svg>
